<?xml version="1.0" encoding="iso-8859-1"?>
<!-- Generator: Adobe Illustrator 19.0.0, SVG Export Plug-In . SVG Version: 6.00 Build 0)  -->
<svg version="1.1" id="Capa_1" xmlns="http://www.w3.org/2000/svg" xmlns:xlink="http://www.w3.org/1999/xlink" x="0px" y="0px"
	 viewBox="0 0 512 512" style="enable-background:new 0 0 512 512;" xml:space="preserve">
<path style="fill:#F4A22B;" d="M512,256c0,25.036-3.594,49.225-10.303,72.098C470.57,434.385,372.349,512,256,512
	S41.43,434.385,10.303,328.098C3.594,305.225,0,281.036,0,256c0-7.032,0.282-13.991,0.846-20.877c-0.01-0.01-0.01-0.021,0-0.031
	C11.483,103.487,121.657,0,256,0s244.517,103.487,255.154,235.092c0.01,0.01,0.01,0.021,0,0.031
	C511.718,242.009,512,248.968,512,256z"/>
<path style="fill:#FFCC4E;" d="M511.154,235.092c0.01,0.01,0.01,0.021,0,0.031c-1.421,17.617-4.639,34.743-9.456,51.179
	C470.57,392.589,372.349,470.204,256,470.204S41.43,392.589,10.303,286.302c-4.817-16.436-8.035-33.562-9.456-51.179
	c-0.01-0.01-0.01-0.021,0-0.031C11.483,103.487,121.657,0,256,0S500.517,103.487,511.154,235.092z"/>
<path style="fill:#33384A;" d="M254.85,140.147c49.898,0,88.324,25.809,88.324,75.133v96.353
	c2.867,18.926,12.617,28.103,25.235,28.103c30.397,0,34.985-52.192,34.985-84.31c0-101.515-45.309-159.442-145.104-159.442
	c-114.707,0-149.118,78.001-149.118,165.177c0,81.441,30.971,154.854,131.339,154.854c48.177,0,66.53-15.485,78.574-15.485
	c9.75,0,15.485,11.471,15.485,17.779c0,21.221-61.368,34.412-100.942,34.412c-85.456,0-165.177-60.221-165.177-190.986
	c0-112.986,58.5-202.457,190.413-202.457c117.574,0,184.677,69.397,184.677,188.119c0,66.53-22.367,125.03-78.574,125.03
	c-31.544,0-53.911-18.353-58.5-40.147c-19.501,22.367-39,36.133-71.118,36.133c-36.706,0-72.266-18.353-72.266-64.81
	c0-53.339,47.03-68.251,114.133-68.251h21.221v-9.75c0-29.25-16.059-43.015-50.471-43.015c-35.559,0-45.883,14.912-55.632,14.912
	c-9.176,0-15.485-15.485-15.485-23.514C176.849,155.059,218.143,140.147,254.85,140.147z M300.159,264.031h-17.206
	c-43.014,0-70.544,8.604-70.544,39c0,21.221,13.764,30.971,32.691,30.971c30.971,0,55.059-24.088,55.059-46.456v-23.514H300.159z"/>
<g>
</g>
<g>
</g>
<g>
</g>
<g>
</g>
<g>
</g>
<g>
</g>
<g>
</g>
<g>
</g>
<g>
</g>
<g>
</g>
<g>
</g>
<g>
</g>
<g>
</g>
<g>
</g>
<g>
</g>
</svg>
